<?xml version="1.0" encoding="utf-8"?>
<!-- Generator: Adobe Illustrator 19.0.0, SVG Export Plug-In . SVG Version: 6.00 Build 0)  -->
<svg version="1.1" id="layer" xmlns="http://www.w3.org/2000/svg" xmlns:xlink="http://www.w3.org/1999/xlink" x="0px" y="0px"
	 viewBox="-153 -46 652 652" style="enable-background:new -153 -46 652 652;" xml:space="preserve">
<style type="text/css">
	.st0{fill:#222F4B;}
	.st1{fill:#166BFF;}
	.st2{filter:url(#Adobe_OpacityMaskFilter);}
	.st3{fill:#FFFFFF;}
	.st4{mask:url(#c_1_);}
	.st5{opacity:0.65;fill:#003399;}
</style>
<path class="st0" d="M115.2,304.8v-74.6h16.7v58.6H169v15.9H115.2z M230.6,275.8c0,2.2-0.2,4.4-0.5,6.7h-40.7
	c1.7,6.1,6.5,10.4,15,10.4c5.9,0,12.8-2.3,17.3-5.3l6.3,10.8c-5.3,4-13.9,7.7-24.2,7.7c-20.7,0-30.3-13.9-30.3-29
	c0-16.4,11.6-29,29.2-29C218.5,248.1,230.6,258.3,230.6,275.8L230.6,275.8z M202.6,260.9c-6.5,0-11.5,3.8-13.3,10.3h26
	C213.9,264.9,209.3,260.9,202.6,260.9z M281.4,249.5h14.9v55.3h-14.9v-5.7c-4,4-9.5,7.1-17,7.1c-15.9,0-27.2-12.9-27.2-29.4
	c0-16.5,11.6-28.8,27.2-28.8c7.5,0,13,3.1,17.1,7.3L281.4,249.5L281.4,249.5z M267.1,291.8c8.4,0,14.3-6.8,14.3-14.7
	c0-7.9-6-14.5-14.3-14.5c-8.4,0-14.1,6.7-14.1,14.5C253,285.1,258.8,291.8,267.1,291.8z M308.6,304.8v-55.3H324v7.7
	c2.7-4.9,9.1-9.2,17.5-9.2c11,0,21.5,7.4,21.5,23v33.8h-15.8v-29.7c0-8.2-4.3-12.6-10.8-12.6c-7.1,0-11.9,5.2-11.9,13v29.3
	C324.4,304.8,308.6,304.8,308.6,304.8z M376.2,230.2h16.7v74.6h-16.7C376.2,304.8,376.2,230.2,376.2,230.2z M401.1,304.8l23.5-37.6
	l-21.8-36.9h19.3l13.3,24.3l14.1-24.3H469l-23.1,36.9l22.9,37.6h-19.3l-14.3-25l-14.6,25H401.1z"/>
<g transform="translate(14.4 2.8)">
	<circle id="a_1_" class="st1" cx="-21.9" cy="266.3" r="60.9"/>
	<defs>
		<filter id="Adobe_OpacityMaskFilter" filterUnits="userSpaceOnUse" x="-125.4" y="215.9" width="125.2" height="125.2">
			<feColorMatrix  type="matrix" values="1 0 0 0 0  0 1 0 0 0  0 0 1 0 0  0 0 0 1 0"/>
		</filter>
	</defs>
	<mask maskUnits="userSpaceOnUse" x="-125.4" y="215.9" width="125.2" height="125.2" id="c_1_">
		<g class="st2">
			<circle id="a_2_" class="st3" cx="-21.9" cy="266.3" r="60.9"/>
		</g>
	</mask>
	<g class="st4">
		
			<rect x="-107.1" y="234.2" transform="matrix(-0.7071 0.7071 -0.7071 -0.7071 89.7341 519.8073)" class="st5" width="88.6" height="88.6"/>
	</g>
</g>
<path class="st1" d="M-131,269.1l62.6-62.6l62.6,62.6l-62.6,62.6L-131,269.1z"/>
<path class="st3" d="M-50,312.6c-11.8-11.4-18.4-27.1-18.4-43.5c0-17,7-32.5,18.4-43.5l44.2,43.5L-50,312.6z"/>
</svg>
